<svg width="54" height="42" viewBox="0 0 54 42" fill="none" xmlns="http://www.w3.org/2000/svg">
<path fill-rule="evenodd" clip-rule="evenodd" d="M1.62868 1.46205C0.75 2.34073 0.75 3.75494 0.75 6.58337V8.33319C0.914604 8.33305 1.08154 8.37361 1.23564 8.45922L27 22.7727L52.7644 8.45922C52.9185 8.37361 53.0854 8.33305 53.25 8.33319V6.58337C53.25 3.75495 53.25 2.34073 52.3713 1.46205C51.4926 0.583374 50.0784 0.583374 47.25 0.583374H6.75C3.92157 0.583374 2.50736 0.583374 1.62868 1.46205ZM53.25 10.4773L27.9713 24.5211C27.3672 24.8566 26.6328 24.8566 26.0287 24.5211L0.75 10.4773V35.4167C0.75 38.2451 0.75 39.6594 1.62868 40.538C2.50736 41.4167 3.92157 41.4167 6.75 41.4167H47.25C50.0784 41.4167 51.4926 41.4167 52.3713 40.538C53.25 39.6594 53.25 38.2451 53.25 35.4167V10.4773Z" fill="white"/>
</svg>
