<svg width="42" height="33" viewBox="0 0 42 33" fill="none" xmlns="http://www.w3.org/2000/svg">
<path fill-rule="evenodd" clip-rule="evenodd" d="M1.26633 1.17002C0.554688 1.88166 0.554688 3.02704 0.554688 5.31779V6.5233C0.688001 6.52318 0.823205 6.55603 0.948011 6.62537L21.1797 17.8652L41.4114 6.62537C41.5362 6.55603 41.6714 6.52318 41.8047 6.5233V5.31779C41.8047 3.02704 41.8047 1.88166 41.093 1.17002C40.3814 0.458374 39.236 0.458374 36.9453 0.458374H5.4141C3.12335 0.458374 1.97798 0.458374 1.26633 1.17002ZM41.8047 8.25984L21.9663 19.2812C21.4771 19.5529 20.8823 19.5529 20.393 19.2812L0.554688 8.25984V27.6823C0.554688 29.973 0.554688 31.1184 1.26633 31.8301C1.97798 32.5417 3.12335 32.5417 5.4141 32.5417H36.9453C39.236 32.5417 40.3814 32.5417 41.093 31.8301C41.8047 31.1184 41.8047 29.973 41.8047 27.6823V8.25984Z" fill="white"/>
</svg>
